<svg xmlns="http://www.w3.org/2000/svg" xmlns:xlink="http://www.w3.org/1999/xlink" width="2000" zoomAndPan="magnify" viewBox="0 0 1500 1499.999933" height="2000" preserveAspectRatio="xMidYMid meet" version="1.0"><defs><g/><clipPath id="65877cf454"><path d="M 234.582031 578 L 1265.078125 578 L 1265.078125 1085 L 234.582031 1085 Z M 234.582031 578 " clip-rule="nonzero"/></clipPath><clipPath id="8ee74f622f"><path d="M 234.582031 111 L 1265.078125 111 L 1265.078125 662 L 234.582031 662 Z M 234.582031 111 " clip-rule="nonzero"/></clipPath><clipPath id="759360d2c1"><rect x="0" width="1381" y="0" height="265"/></clipPath></defs><path fill="#ffffff" d="M 727.796875 831.375 L 772.679688 831.375 C 791.386719 831.375 806.511719 816.226562 806.511719 797.539062 L 806.511719 710.84375 L 819.800781 710.84375 C 833.757812 710.84375 845.09375 699.527344 845.09375 685.566406 L 845.09375 645.109375 C 845.09375 631.152344 833.757812 619.816406 819.800781 619.816406 L 680.675781 619.816406 C 666.699219 619.816406 655.382812 631.152344 655.382812 645.109375 L 655.382812 685.566406 C 655.382812 699.527344 666.699219 710.84375 680.675781 710.84375 L 693.945312 710.84375 L 693.945312 797.539062 C 693.945312 816.226562 709.09375 831.375 727.796875 831.375 " fill-opacity="1" fill-rule="nonzero"/><g clip-path="url(#65877cf454)"><path fill="#ffffff" d="M 837.148438 743.757812 L 837.148438 797.539062 C 837.148438 833.078125 808.238281 861.992188 772.679688 861.992188 L 727.796875 861.992188 C 692.242188 861.992188 663.3125 833.078125 663.3125 797.539062 L 663.3125 743.757812 C 581.113281 735.582031 500.902344 715.742188 423.894531 684.515625 C 356.246094 657.078125 292.964844 621.539062 234.71875 578.34375 L 234.71875 1000.234375 C 234.71875 1046.703125 272.417969 1084.386719 318.910156 1084.386719 L 1181.570312 1084.386719 C 1228.058594 1084.386719 1265.761719 1046.703125 1265.761719 1000.234375 L 1265.761719 578.34375 C 1207.515625 621.539062 1144.234375 657.078125 1076.585938 684.515625 C 999.574219 715.742188 919.347656 735.582031 837.148438 743.757812 " fill-opacity="1" fill-rule="nonzero"/></g><g clip-path="url(#8ee74f622f)"><path fill="#ffffff" d="M 516.527344 260.785156 C 516.527344 237.253906 535.65625 218.105469 559.1875 218.105469 L 597.214844 218.105469 C 609.488281 235.453125 629.667969 246.789062 652.53125 246.789062 L 847.949219 246.789062 C 870.808594 246.789062 890.992188 235.453125 903.265625 218.105469 L 941.289062 218.105469 C 964.824219 218.105469 983.949219 237.253906 983.949219 260.785156 L 983.949219 366.804688 L 516.527344 366.804688 Z M 1181.570312 366.804688 L 1062.089844 366.804688 L 1062.089844 260.785156 C 1062.089844 194.171875 1007.886719 139.984375 941.289062 139.984375 L 903.265625 139.984375 C 890.992188 122.65625 870.808594 111.320312 847.949219 111.320312 L 652.53125 111.320312 C 629.667969 111.320312 609.488281 122.65625 597.214844 139.984375 L 559.1875 139.984375 C 492.574219 139.984375 438.386719 194.171875 438.386719 260.785156 L 438.386719 366.804688 L 318.910156 366.804688 C 272.417969 366.804688 234.71875 404.484375 234.71875 450.957031 L 234.71875 480.347656 C 346.328125 576.582031 480.605469 638.773438 624.75 661.632812 L 624.75 645.109375 C 624.75 614.28125 649.832031 589.199219 680.675781 589.199219 L 819.800781 589.199219 C 850.648438 589.199219 875.730469 614.28125 875.730469 645.109375 L 875.730469 661.632812 C 1019.871094 638.773438 1154.132812 576.582031 1265.761719 480.347656 L 1265.761719 450.957031 C 1265.761719 404.484375 1228.058594 366.804688 1181.570312 366.804688 " fill-opacity="1" fill-rule="nonzero"/></g><g transform="matrix(1, 0, 0, 1, 56, 1132)"><g clip-path="url(#759360d2c1)"><g fill="#ffffff" fill-opacity="1"><g transform="translate(12.550769, 189.994764)"><g><path d="M 66.546875 0 L -5.859375 -172.625 L 38.5 -172.625 L 82.03125 -59.21875 L 125.546875 -172.625 L 169.90625 -172.625 L 97.515625 0 Z M 66.546875 0 "/></g></g></g><g fill="#ffffff" fill-opacity="1"><g transform="translate(169.065999, 189.994764)"><g><path d="M 93.953125 -107.34375 L 136.640625 -107.34375 L 52.3125 54.40625 L 9.625 54.40625 L 46.65625 -16.734375 L -4.1875 -107.34375 L 38.5 -107.34375 L 68.421875 -52.3125 Z M 93.953125 -107.34375 "/></g></g></g><g fill="#ffffff" fill-opacity="1"><g transform="translate(300.053267, 189.994764)"><g><path d="M 19.875 -13.28125 C 9.832031 -24.238281 4.8125 -37.664062 4.8125 -53.5625 C 4.8125 -69.46875 9.832031 -82.929688 19.875 -93.953125 C 29.914062 -104.972656 42.679688 -110.484375 58.171875 -110.484375 C 72.398438 -110.484375 84.117188 -106.019531 93.328125 -97.09375 L 93.328125 -107.34375 L 130.359375 -107.34375 L 130.359375 0 L 93.75 0 L 93.75 -12.140625 L 93.328125 -12.140625 C 84.117188 -1.953125 72.398438 3.140625 58.171875 3.140625 C 42.679688 3.140625 29.914062 -2.332031 19.875 -13.28125 Z M 51.375 -71.765625 C 46.5625 -67.023438 44.15625 -60.957031 44.15625 -53.5625 C 44.15625 -46.175781 46.457031 -40.144531 51.0625 -35.46875 C 55.664062 -30.789062 61.734375 -28.453125 69.265625 -28.453125 C 76.515625 -28.453125 82.472656 -30.820312 87.140625 -35.5625 C 91.816406 -40.3125 94.15625 -46.3125 94.15625 -53.5625 C 94.15625 -60.957031 91.75 -67.023438 86.9375 -71.765625 C 82.125 -76.515625 76.234375 -78.890625 69.265625 -78.890625 C 62.148438 -78.890625 56.1875 -76.515625 51.375 -71.765625 Z M 51.375 -71.765625 "/></g></g></g><g fill="#ffffff" fill-opacity="1"><g transform="translate(442.96754, 189.994764)"><g><path d="M 123.03125 -94.046875 C 133.082031 -83.097656 138.109375 -69.671875 138.109375 -53.765625 C 138.109375 -37.867188 133.082031 -24.410156 123.03125 -13.390625 C 112.988281 -2.367188 100.226562 3.140625 84.75 3.140625 C 70.519531 3.140625 58.800781 -1.320312 49.59375 -10.25 L 49.59375 54.40625 L 12.5625 54.40625 L 12.5625 -107.34375 L 49.171875 -107.34375 L 49.171875 -95.203125 L 49.59375 -95.203125 C 58.800781 -105.390625 70.519531 -110.484375 84.75 -110.484375 C 100.226562 -110.484375 112.988281 -105.003906 123.03125 -94.046875 Z M 91.546875 -35.5625 C 96.359375 -40.3125 98.765625 -46.382812 98.765625 -53.78125 C 98.765625 -61.175781 96.460938 -67.207031 91.859375 -71.875 C 87.253906 -76.550781 81.1875 -78.890625 73.65625 -78.890625 C 66.40625 -78.890625 60.441406 -76.515625 55.765625 -71.765625 C 51.085938 -67.023438 48.75 -61.03125 48.75 -53.78125 C 48.75 -46.382812 51.15625 -40.3125 55.96875 -35.5625 C 60.78125 -30.820312 66.675781 -28.453125 73.65625 -28.453125 C 80.769531 -28.453125 86.734375 -30.820312 91.546875 -35.5625 Z M 91.546875 -35.5625 "/></g></g></g><g fill="#ffffff" fill-opacity="1"><g transform="translate(585.881813, 189.994764)"><g><path d="M 19.875 -13.28125 C 9.832031 -24.238281 4.8125 -37.664062 4.8125 -53.5625 C 4.8125 -69.46875 9.832031 -82.929688 19.875 -93.953125 C 29.914062 -104.972656 42.679688 -110.484375 58.171875 -110.484375 C 72.398438 -110.484375 84.117188 -106.019531 93.328125 -97.09375 L 93.328125 -107.34375 L 130.359375 -107.34375 L 130.359375 0 L 93.75 0 L 93.75 -12.140625 L 93.328125 -12.140625 C 84.117188 -1.953125 72.398438 3.140625 58.171875 3.140625 C 42.679688 3.140625 29.914062 -2.332031 19.875 -13.28125 Z M 51.375 -71.765625 C 46.5625 -67.023438 44.15625 -60.957031 44.15625 -53.5625 C 44.15625 -46.175781 46.457031 -40.144531 51.0625 -35.46875 C 55.664062 -30.789062 61.734375 -28.453125 69.265625 -28.453125 C 76.515625 -28.453125 82.472656 -30.820312 87.140625 -35.5625 C 91.816406 -40.3125 94.15625 -46.3125 94.15625 -53.5625 C 94.15625 -60.957031 91.75 -67.023438 86.9375 -71.765625 C 82.125 -76.515625 76.234375 -78.890625 69.265625 -78.890625 C 62.148438 -78.890625 56.1875 -76.515625 51.375 -71.765625 Z M 51.375 -71.765625 "/></g></g></g><g fill="#ffffff" fill-opacity="1"><g transform="translate(728.796086, 189.994764)"><g><path d="M 12.5625 0 L 12.5625 -107.34375 L 49.59375 -107.34375 L 49.59375 -91.859375 L 50.015625 -91.859375 C 50.285156 -92.421875 50.734375 -93.117188 51.359375 -93.953125 C 51.992188 -94.785156 53.359375 -96.25 55.453125 -98.34375 C 57.546875 -100.4375 59.773438 -102.320312 62.140625 -104 C 64.515625 -105.675781 67.582031 -107.175781 71.34375 -108.5 C 75.113281 -109.820312 78.953125 -110.484375 82.859375 -110.484375 C 86.910156 -110.484375 90.890625 -109.925781 94.796875 -108.8125 C 98.703125 -107.695312 101.5625 -106.582031 103.375 -105.46875 L 106.296875 -103.78125 L 90.8125 -72.40625 C 86.207031 -76.3125 79.789062 -78.265625 71.5625 -78.265625 C 67.101562 -78.265625 63.265625 -77.285156 60.046875 -75.328125 C 56.835938 -73.378906 54.570312 -71.007812 53.25 -68.21875 C 51.925781 -65.425781 50.984375 -63.050781 50.421875 -61.09375 C 49.867188 -59.144531 49.59375 -57.613281 49.59375 -56.5 L 49.59375 0 Z M 12.5625 0 "/></g></g></g><g fill="#ffffff" fill-opacity="1"><g transform="translate(833.000078, 189.994764)"><g><path d="M 76.171875 -175.765625 C 85.515625 -175.765625 94.648438 -174.40625 103.578125 -171.6875 C 112.503906 -168.96875 119.128906 -166.285156 123.453125 -163.640625 L 129.734375 -159.453125 L 113.828125 -128.0625 C 112.578125 -128.894531 110.832031 -129.972656 108.59375 -131.296875 C 106.363281 -132.628906 102.179688 -134.410156 96.046875 -136.640625 C 89.910156 -138.867188 84.191406 -139.984375 78.890625 -139.984375 C 72.328125 -139.984375 67.265625 -138.585938 63.703125 -135.796875 C 60.148438 -133.015625 58.375 -129.25 58.375 -124.5 C 58.375 -122.132812 59.210938 -119.9375 60.890625 -117.90625 C 62.566406 -115.882812 65.425781 -113.722656 69.46875 -111.421875 C 73.519531 -109.117188 77.078125 -107.269531 80.140625 -105.875 C 83.210938 -104.476562 87.957031 -102.390625 94.375 -99.609375 C 105.53125 -94.859375 115.046875 -88.398438 122.921875 -80.234375 C 130.804688 -72.078125 134.75 -62.835938 134.75 -52.515625 C 134.75 -42.617188 132.96875 -33.972656 129.40625 -26.578125 C 125.851562 -19.179688 120.972656 -13.390625 114.765625 -9.203125 C 108.566406 -5.015625 101.695312 -1.910156 94.15625 0.109375 C 86.625 2.128906 78.46875 3.140625 69.6875 3.140625 C 62.144531 3.140625 54.75 2.367188 47.5 0.828125 C 40.25 -0.703125 34.179688 -2.617188 29.296875 -4.921875 C 24.410156 -7.222656 20.015625 -9.488281 16.109375 -11.71875 C 12.203125 -13.945312 9.34375 -15.832031 7.53125 -17.375 L 4.8125 -19.671875 L 24.484375 -52.734375 C 26.160156 -51.335938 28.460938 -49.554688 31.390625 -47.390625 C 34.316406 -45.234375 39.507812 -42.335938 46.96875 -38.703125 C 54.4375 -35.078125 61.03125 -33.265625 66.75 -33.265625 C 83.351562 -33.265625 91.65625 -38.914062 91.65625 -50.21875 C 91.65625 -52.59375 91.0625 -54.789062 89.875 -56.8125 C 88.6875 -58.832031 86.59375 -60.851562 83.59375 -62.875 C 80.59375 -64.894531 77.941406 -66.5 75.640625 -67.6875 C 73.335938 -68.875 69.570312 -70.6875 64.34375 -73.125 C 59.113281 -75.570312 55.242188 -77.421875 52.734375 -78.671875 C 42.265625 -83.835938 34.171875 -90.289062 28.453125 -98.03125 C 22.734375 -105.769531 19.875 -114.101562 19.875 -123.03125 C 19.875 -138.519531 25.59375 -151.179688 37.03125 -161.015625 C 48.476562 -170.847656 61.523438 -175.765625 76.171875 -175.765625 Z M 76.171875 -175.765625 "/></g></g></g><g fill="#ffffff" fill-opacity="1"><g transform="translate(973.61271, 189.994764)"><g><path d="M 111.328125 -172.625 L 111.328125 -138.109375 L 51.890625 -138.109375 L 51.890625 -103.78125 L 108.8125 -103.78125 L 108.8125 -69.265625 L 51.890625 -69.265625 L 51.890625 -34.53125 L 111.328125 -34.53125 L 111.328125 0 L 12.5625 0 L 12.5625 -172.625 Z M 111.328125 -172.625 "/></g></g></g><g fill="#ffffff" fill-opacity="1"><g transform="translate(1094.974764, 189.994764)"><g><path d="M 1.671875 -138.109375 L 1.671875 -172.625 L 123.03125 -172.625 L 123.03125 -138.109375 L 82.03125 -138.109375 L 82.03125 0 L 42.6875 0 L 42.6875 -138.109375 Z M 1.671875 -138.109375 "/></g></g></g><g fill="#ffffff" fill-opacity="1"><g transform="translate(1219.684717, 189.994764)"><g><path d="M 145.21875 -172.625 L 145.21875 -61.3125 C 145.21875 -40.101562 139.5 -24.054688 128.0625 -13.171875 C 116.625 -2.296875 99.882812 3.140625 77.84375 3.140625 C 55.800781 3.140625 39.0625 -2.296875 27.625 -13.171875 C 16.1875 -24.054688 10.46875 -40.101562 10.46875 -61.3125 L 10.46875 -172.625 L 49.796875 -172.625 L 49.796875 -72.8125 C 49.796875 -58.863281 51.992188 -49.171875 56.390625 -43.734375 C 60.785156 -38.296875 67.9375 -35.578125 77.84375 -35.578125 C 87.75 -35.578125 94.894531 -38.296875 99.28125 -43.734375 C 103.675781 -49.171875 105.875 -58.863281 105.875 -72.8125 L 105.875 -172.625 Z M 145.21875 -172.625 "/></g></g></g></g></g></svg>